<svg xmlns="http://www.w3.org/2000/svg" xmlns:xlink="http://www.w3.org/1999/xlink" fill="none" version="1.1" width="16" height="16" viewBox="0 0 16 16"><g><g><path d="M7.99831,3.6926575390625Q7.87288,3.5302575390625,7.72131,3.3786915390625Q6.84263,2.5000118590625,5.59999,2.5000119190625L3.70004,2.5000119190625C3.4239,2.5000119190625,3.20004,2.7238695390625,3.20004,3.0000115390625L3.20004,4.5999775390625L1.5,4.5999775390625C1.223858,4.5999775390625,1,4.823837539062501,1,5.0999775390625L1,12.9999275390625C1,13.2761275390625,1.223858,13.4999275390625,1.5,13.4999275390625L14.5,13.4999275390625C14.7762,13.4999275390625,15,13.2761275390625,15,12.9999275390625L15,5.0999775390625C15,4.823837539062501,14.7762,4.5999775390625,14.5,4.5999775390625L12.7999,4.5999775390625L12.7999,3.0002495390625C12.7999,2.7245725390625,12.5768,2.5009084490625,12.3011,2.5002514390625L10.40714,2.4957375526625Q9.16241,2.4927710290625,8.2812,3.3718825390625Q8.12611,3.5266075390625,7.99831,3.6926575390625ZM12.7999,5.7999775390625L12.7999,10.8000175390625C12.7999,11.0761575390625,12.5761,11.3000175390625,12.2999,11.3000175390625L3.70004,11.3000175390625C3.4239,11.3000175390625,3.20004,11.0761575390625,3.20004,10.8000175390625L3.20004,5.7999775390625L2.2,5.7999775390625L2.2,12.2999575390625L13.8,12.2999575390625L13.8,5.7999775390625L12.7999,5.7999775390625ZM8.59999,5.4957275390625L8.59999,10.0000375390625C8.59999,10.0335375390625,8.597190000000001,10.066987539062499,8.5916,10.100017539062499L11.5999,10.100017539062499L11.5999,3.6985875390625003L10.40428,3.6957375390625Q9.65744,3.6939575390624997,9.12872,4.2214175390625Q8.59999,4.748887539062499,8.59999,5.4957275390625ZM7.39999,5.5000075390625L7.39999,10.0000375390625C7.39999,10.0335375390625,7.4028,10.066987539062499,7.40838,10.100017539062499L4.400040000000001,10.100017539062499L4.400040000000001,3.7000075390625L5.59999,3.7000075390625Q6.34558,3.7000075390625,6.87279,4.2272175390625Q7.39999,4.7544275390625,7.39999,5.5000075390625Z" fill-rule="evenodd" fill="#000000" fill-opacity="0.6499999761581421"/></g></g></svg>