<svg xmlns="http://www.w3.org/2000/svg" xmlns:xlink="http://www.w3.org/1999/xlink" fill="none" version="1.1" width="16" height="16" viewBox="0 0 16 16"><g><g><path d="M10.63,2.95L1.87,2.95C1.8037258,2.95,1.75,2.89627,1.75,2.83L1.75,1.87C1.75,1.8037258,1.8037258,1.75,1.87,1.75L10.63,1.75C10.69627,1.75,10.75,1.8037258,10.75,1.87L10.75,2.83C10.75,2.89627,10.69627,2.95,10.63,2.95ZM5.43,6.7L1.87,6.7C1.8037258,6.7,1.75,6.64627,1.75,6.58L1.75,5.62C1.75,5.55373,1.8037258,5.5,1.87,5.5L5.43,5.5C5.49627,5.5,5.55,5.55373,5.55,5.62L5.55,6.58C5.55,6.64627,5.49627,6.7,5.43,6.7ZM8.80462,9.94208L6.5156,8.09326C6.45614,8.04523,6.45614,7.95458,6.5156,7.90655L8.80462,6.05773C8.883099999999999,5.99434,9.00002,6.0502,9.00002,6.15108L9.00002,7.3999L14.13,7.3999C14.1963,7.3999,14.25,7.45363,14.25,7.5199L14.25,8.4799C14.25,8.54618,14.1963,8.5999,14.13,8.5999L9.00002,8.5999L9.00002,9.84873C9.00002,9.94961,8.883099999999999,10.00547,8.80462,9.94208ZM5.43,10.50005L1.87,10.50005C1.8037258,10.50005,1.75,10.44632,1.75,10.38005L1.75,9.42005C1.75,9.35377,1.8037258,9.300049999999999,1.87,9.300049999999999L5.43,9.300049999999999C5.49627,9.300049999999999,5.55,9.35377,5.55,9.42005L5.55,10.38005C5.55,10.44632,5.49627,10.50005,5.43,10.50005ZM10.63,14.25L1.87,14.25C1.8037258,14.25,1.75,14.1963,1.75,14.13L1.75,13.17C1.75,13.1038,1.8037258,13.05,1.87,13.05L10.63,13.05C10.69627,13.05,10.75,13.1038,10.75,13.17L10.75,14.13C10.75,14.1963,10.69627,14.25,10.63,14.25Z" fill-rule="evenodd" fill="#000000" fill-opacity="0.6499999761581421"/></g></g></svg>