<svg xmlns="http://www.w3.org/2000/svg" xmlns:xlink="http://www.w3.org/1999/xlink" fill="none" version="1.1" width="16" height="16" viewBox="0 0 16 16"><g><g><path d="M1,10.5L1,5.5C1,3.84315,2.34315,2.5,4,2.5L12,2.5C13.6569,2.5,15,3.84315,15,5.5L15,8.32906C15,8.44023,14.8619,8.49163,14.7892,8.40752L13.9,7.37858L13.9,7.37689L12.1914,5.39841C12.1242,5.32066,12.1795,5.19998,12.2822,5.19998L13.8786,5.19998Q13.7908,4.60378,13.3435,4.1565Q12.787,3.6,12,3.6L4,3.6Q3.21299,3.6,2.6565000000000003,4.1565Q2.1,4.71299,2.1,5.5L2.1,10.5Q2.1,11.28701,2.6565000000000003,11.8435Q3.21299,12.4,4,12.4L12,12.4Q12.787,12.4,13.3435,11.8435Q13.9,11.28701,13.9,10.5L13.9,9.50096C13.9,9.38979,14.0381,9.33838,14.1108,9.42249L14.9708,10.417629999999999C14.9896,10.43943,15,10.467279999999999,15,10.4961L15,10.5C15,12.15685,13.6569,13.5,12,13.5L4,13.5C2.34315,13.5,1,12.15685,1,10.5ZM3.3999,10.379999999999999L3.3999,6C3.3999,5.72386,3.62376,5.5,3.8999,5.5L4.40263,5.5C4.44606,5.5,4.48611,5.52347,4.50733,5.56137L6.19994,8.58389L6.20001,5.62C6.20001,5.55372,6.25373,5.5,6.32001,5.5L6.70001,5.5L7.08001,5.50001C7.14628,5.50001,7.20001,5.5537399999999995,7.20001,5.620010000000001L7.19991,10.00001C7.19991,10.276150000000001,6.97605,10.5,6.69991,10.5L6.19718,10.5C6.15374,10.5,6.1137,10.47653,6.09247,10.43863L4.399900000000001,7.41618L4.399900000000001,10.379999999999999C4.399900000000001,10.44627,4.34618,10.5,4.2799,10.5L3.5199,10.5C3.45363,10.5,3.3999,10.44627,3.3999,10.379999999999999ZM11.0967,6.27339Q10.54426,5.5,9.69989,5.5Q8.85553,5.5,8.303049999999999,6.273350000000001Q7.7998,6.9778,7.7998,8.000029999999999Q7.7998,9.022269999999999,8.30306,9.72669Q8.85553,10.5,9.69989,10.5Q10.54426,10.5,11.0967,9.726659999999999Q11.5998,9.022269999999999,11.5998,8.000029999999999Q11.5998,6.9778,11.0967,6.27339ZM9.11674,6.85465Q9.3701,6.5,9.69989,6.5Q10.02964,6.5,10.28293,6.85461Q10.5998,7.29826,10.5998,8.000029999999999Q10.5998,8.7018,10.28293,9.14541Q10.02965,9.5,9.69989,9.5Q9.37009,9.5,9.11674,9.14538Q8.799800000000001,8.70175,8.799800000000001,8.000029999999999Q8.799800000000001,7.2983,9.11674,6.85465ZM11.8202,10.55001L12.6802,10.55001C12.7465,10.55001,12.8002,10.49629,12.8002,10.43001L12.8002,9.57001C12.8002,9.50374,12.7465,9.450009999999999,12.6802,9.450009999999999L11.8202,9.450009999999999C11.7539,9.450009999999999,11.7002,9.50374,11.7002,9.57001L11.7002,10.43001C11.7002,10.49629,11.7539,10.55001,11.8202,10.55001Z" fill-rule="evenodd" fill="#000000" fill-opacity="0.6499999761581421"/></g></g></svg>