<svg xmlns="http://www.w3.org/2000/svg" xmlns:xlink="http://www.w3.org/1999/xlink" fill="none" version="1.1" width="16" height="16" viewBox="0 0 16 16"><g><g><path d="M1.75,2.25L1.75,4.85C1.75,5.1261399999999995,1.973858,5.35,2.25,5.35L2.9499899999999997,5.35L2.9499899999999997,11.95Q2.9499899999999997,12.4056,3.27217,12.7278Q3.59435,13.05,4.04999,13.05L7.84998,13.05L7.84998,13.7499Q7.84998,13.7991,7.85958,13.8474Q7.86919,13.8957,7.88804,13.9412Q7.90688,13.9867,7.93424,14.0277Q7.9616,14.0686,7.99642,14.1035Q8.03124,14.1383,8.072189999999999,14.1656Q8.11314,14.193,8.158629999999999,14.2118Q8.20413,14.2307,8.25243,14.2403Q8.30073,14.2499,8.34998,14.2499L13.75,14.2499Q13.7992,14.2499,13.8475,14.2403Q13.8958,14.2307,13.9413,14.2118Q13.9868,14.193,14.0278,14.1656Q14.0687,14.1383,14.1035,14.1035Q14.1383,14.0686,14.1657,14.0277Q14.1931,13.9867,14.2119,13.9412Q14.2308,13.8957,14.2404,13.8474Q14.25,13.7991,14.25,13.7499L14.25,11.1499Q14.25,11.10066,14.2404,11.05236Q14.2308,11.00406,14.2119,10.95856Q14.1931,10.91306,14.1657,10.87212Q14.1383,10.83117,14.1035,10.79635Q14.0687,10.76153,14.0278,10.73417Q13.9868,10.70681,13.9413,10.68796Q13.8958,10.66912,13.8475,10.65951Q13.7992,10.6499,13.75,10.6499L8.34998,10.6499Q8.30073,10.6499,8.25243,10.65951Q8.20413,10.66912,8.158629999999999,10.68796Q8.11314,10.70681,8.072189999999999,10.73417Q8.03124,10.76153,7.99642,10.79635Q7.9616,10.83117,7.93424,10.87212Q7.90688,10.91306,7.88803,10.95856Q7.86919,11.00406,7.85958,11.05236Q7.84998,11.10066,7.84998,11.1499L7.84998,11.85L4.14999,11.85L4.14999,5.35L4.85,5.35C5.1261399999999995,5.35,5.35,5.1261399999999995,5.35,4.85L5.35,4.15005L7.84998,4.15005L7.84998,4.85Q7.84998,4.89925,7.85958,4.94754Q7.86919,4.995839999999999,7.88804,5.04134Q7.90688,5.0868400000000005,7.93424,5.12778Q7.9616,5.16873,7.99642,5.20355Q8.03124,5.23837,8.072189999999999,5.26573Q8.11314,5.293089999999999,8.158629999999999,5.31194Q8.20413,5.33078,8.25243,5.34039Q8.30073,5.35,8.34998,5.35L13.75,5.35Q13.7992,5.35,13.8475,5.34039Q13.8958,5.33078,13.9413,5.31194Q13.9868,5.293089999999999,14.0278,5.26573Q14.0687,5.23837,14.1035,5.20355Q14.1383,5.16873,14.1657,5.12778Q14.1931,5.0868400000000005,14.2119,5.04134Q14.2308,4.995839999999999,14.2404,4.94754Q14.25,4.89925,14.25,4.85L14.25,2.25Q14.25,2.200754,14.2404,2.152455Q14.2308,2.104155,14.2119,2.058658Q14.1931,2.013161,14.1657,1.972215Q14.1383,1.931269,14.1035,1.896447Q14.0687,1.861625,14.0278,1.8342652Q13.9868,1.8069057,13.9413,1.7880602Q13.8958,1.7692147,13.8475,1.75960736Q13.7992,1.75,13.75,1.75L8.34998,1.75Q8.30073,1.75,8.25243,1.75960736Q8.20413,1.7692147,8.158629999999999,1.7880602Q8.11314,1.8069057,8.072189999999999,1.8342652Q8.03124,1.861625,7.99642,1.896447Q7.9616,1.931269,7.93424,1.972215Q7.90688,2.013161,7.88803,2.058658Q7.86919,2.104155,7.85958,2.152455Q7.84998,2.200754,7.84998,2.25L7.84998,2.95005L5.35,2.95005L5.35,2.25C5.35,1.973858,5.1261399999999995,1.75,4.85,1.75L2.25,1.75C1.973858,1.75,1.75,1.973858,1.75,2.25ZM2.79,4.3100000000000005L2.79,2.79L4.3100000000000005,2.79L4.3100000000000005,4.3100000000000005L2.79,4.3100000000000005ZM13.21,4.3100000000000005L8.889980000000001,4.3100000000000005L8.889980000000001,2.79L13.21,2.79L13.21,4.3100000000000005ZM7.84998,9.299949999999999L7.84998,6.69995Q7.84998,6.65071,7.85958,6.60241Q7.86919,6.55411,7.88804,6.50861Q7.90688,6.46311,7.93424,6.42217Q7.9616,6.38122,7.99642,6.3464Q8.03124,6.31158,8.072189999999999,6.28422Q8.11314,6.25686,8.158629999999999,6.23801Q8.20413,6.21917,8.25243,6.20956Q8.30073,6.19995,8.34998,6.19995L13.75,6.19995Q13.7992,6.19995,13.8475,6.20956Q13.8958,6.21917,13.9413,6.23801Q13.9868,6.25686,14.0278,6.28422Q14.0687,6.31158,14.1035,6.3464Q14.1383,6.38122,14.1657,6.42217Q14.1931,6.46311,14.2119,6.50861Q14.2308,6.55411,14.2404,6.60241Q14.25,6.65071,14.25,6.69995L14.25,9.299949999999999Q14.25,9.3492,14.2404,9.3975Q14.2308,9.445789999999999,14.2119,9.49129Q14.1931,9.53679,14.1657,9.57774Q14.1383,9.618680000000001,14.1035,9.653500000000001Q14.0687,9.68833,14.0278,9.71569Q13.9868,9.74304,13.9413,9.76189Q13.8958,9.78074,13.8475,9.79034Q13.7992,9.79995,13.75,9.79995L8.34998,9.79995Q8.30073,9.79995,8.25243,9.79034Q8.20413,9.78074,8.158629999999999,9.76189Q8.11314,9.74304,8.072189999999999,9.71569Q8.03124,9.68833,7.99642,9.653500000000001Q7.9616,9.618680000000001,7.93424,9.57774Q7.90688,9.53679,7.88803,9.49129Q7.86919,9.4458,7.85958,9.3975Q7.84998,9.3492,7.84998,9.299949999999999ZM13.21,8.75995L8.889980000000001,8.75995L8.889980000000001,7.23995L13.21,7.23995L13.21,8.75995ZM13.21,13.2099L8.889980000000001,13.2099L8.889980000000001,11.6899L13.21,11.6899L13.21,13.2099Z" fill-rule="evenodd" fill="#000000" fill-opacity="0.6499999761581421"/></g></g></svg>