<svg xmlns="http://www.w3.org/2000/svg" xmlns:xlink="http://www.w3.org/1999/xlink" fill="none" version="1.1" width="16" height="16" viewBox="0 0 16 16"><g><g><path d="M13.2497953125,11.079993896484375L13.2497953125,2.749993896484375L4.919805312499999,2.749993896484375C4.8535353125,2.749993896484375,4.7998053125,2.696263896484375,4.7998053125,2.629993896484375L4.7998053125,1.769993896484375C4.7998053125,1.703719696484375,4.8535353125,1.649993896484375,4.919805312499999,1.649993896484375L13.8497953125,1.649993896484375C14.1259953125,1.649993896484375,14.3497953125,1.873851896484375,14.3497953125,2.149993896484375L14.3497953125,11.079993896484375C14.3497953125,11.146263896484376,14.2960953125,11.199993896484376,14.2297953125,11.199993896484376L13.3697953125,11.199993896484376C13.3034953125,11.199993896484376,13.2497953125,11.146263896484376,13.2497953125,11.079993896484375ZM11.8001953125,3.700043896484375L2.2001953125,3.700043896484375C1.9240533125,3.700043896484375,1.7001953125,3.923903896484375,1.7001953125,4.200043896484376L1.7001953125,13.799993896484375C1.7001953125,14.076193896484375,1.9240533125,14.299993896484375,2.2001953125,14.299993896484375L11.8001953125,14.299993896484375C12.0762953125,14.299993896484375,12.3001953125,14.076193896484375,12.3001953125,13.799993896484375L12.3001953125,4.200043896484376C12.3001953125,3.923903896484375,12.0762953125,3.700043896484375,11.8001953125,3.700043896484375ZM5.8002953125,5.700043896484375L8.8001953125,5.700043896484375C9.0763353125,5.700043896484375,9.3001953125,5.923903896484375,9.3001953125,6.200043896484375L9.3001953125,8.000043896484375C9.3001953125,8.276183896484376,9.0763353125,8.500043896484375,8.8001953125,8.500043896484375L7.3002953125,8.500043896484375L7.3002953125,9.500093896484376L9.8001953125,9.500093896484376C10.0763353125,9.500093896484376,10.3001953125,9.723953896484375,10.3001953125,10.000093896484374L10.3001953125,11.800093896484375C10.3001953125,12.076193896484375,10.0763353125,12.300093896484375,9.8001953125,12.300093896484375L9.2001953125,12.300093896484375L9.2001953125,13.199993896484376L11.2001953125,13.199993896484376L11.2001953125,4.800043896484375L5.8002953125,4.800043896484375L5.8002953125,5.700043896484375ZM4.800295312499999,5.700043896484375L4.800295312499999,4.800043896484375L2.8001953125,4.800043896484375L2.8001953125,13.199993896484376L8.2001953125,13.199993896484376L8.2001953125,12.300093896484375L5.2001953125,12.300093896484375C4.9240553125,12.300093896484375,4.7001953125,12.076193896484375,4.7001953125,11.800093896484375L4.7001953125,10.000093896484374C4.7001953125,9.723953896484375,4.9240553125,9.500093896484376,5.2001953125,9.500093896484376L6.3002953125,9.500093896484376L6.3002953125,8.500043896484375L4.2001953125,8.500043896484375C3.9240553125,8.500043896484375,3.7001953125,8.276183896484376,3.7001953125,8.000043896484375L3.7001953125,6.200043896484375C3.7001953125,5.923903896484375,3.9240553125,5.700043896484375,4.2001953125,5.700043896484375L4.800295312499999,5.700043896484375ZM4.7001953125,6.700043896484375L4.7001953125,7.500043896484375L8.3001953125,7.500043896484375L8.3001953125,6.700043896484375L4.7001953125,6.700043896484375ZM5.7001953125,10.500093896484374L5.7001953125,11.300093896484375L9.3001953125,11.300093896484375L9.3001953125,10.500093896484374L5.7001953125,10.500093896484374Z" fill-rule="evenodd" fill="#000000" fill-opacity="0.6499999761581421"/></g></g></svg>