<svg xmlns="http://www.w3.org/2000/svg" xmlns:xlink="http://www.w3.org/1999/xlink" fill="none" version="1.1" width="16" height="16" viewBox="0 0 16 16"><g><g><path d="M3.85000765625,3L3.85000765625,1.12C3.85000765625,1.0537258,3.90372765625,1,3.97000765625,1L4.83000765625,1C4.89627765625,1,4.9500076562499995,1.0537258,4.9500076562499995,1.12L4.9500076562499995,3L10.80009765625,3C11.07623765625,3,11.30009765625,3.22386,11.30009765625,3.5L11.30009765625,6.7C11.30009765625,6.97614,11.07623765625,7.2,10.80009765625,7.2L8.149807656250001,7.2L8.149807656250001,8.800049999999999L13.40019765625,8.800049999999999C13.67629765625,8.800049999999999,13.90019765625,9.02391,13.90019765625,9.30005L13.90019765625,12.5C13.90019765625,12.7762,13.67629765625,13,13.40019765625,13L12.14979765625,13L12.14979765625,14.8799C12.14979765625,14.9462,12.09607765625,14.9999,12.02980765625,14.9999L11.16980765625,14.9999C11.10352765625,14.9999,11.04980765625,14.9462,11.04980765625,14.8799L11.04980765625,13L5.200197656249999,13C4.92405765625,13,4.700197656249999,12.7762,4.700197656249999,12.5L4.700197656249999,9.30005C4.700197656249999,9.02391,4.92405765625,8.800049999999999,5.200197656249999,8.800049999999999L7.04980765625,8.800049999999999L7.04980765625,7.2L2.60009765625,7.2C2.32395565625,7.2,2.10009765625,6.97614,2.10009765625,6.7L2.10009765625,3.5C2.10009765625,3.22386,2.32395565625,3,2.60009765625,3L3.85000765625,3ZM12.30019765625,4.88L12.30019765625,2L7.72009765625,2C7.65382765625,2,7.60009765625,1.9462739999999998,7.60009765625,1.88L7.60009765625,1.12C7.60009765625,1.0537258,7.65382765625,1,7.72009765625,1L12.80019765625,1C13.07629765625,1,13.30019765625,1.223858,13.30019765625,1.5L13.30019765625,4.88C13.30019765625,4.94627,13.24639765625,5,13.18019765625,5L12.42019765625,5C12.35389765625,5,12.30019765625,4.94627,12.30019765625,4.88ZM3.20009765625,6.1L3.20009765625,4.1L10.20009765625,4.1L10.20009765625,6.1L3.20009765625,6.1ZM5.80019765625,11.9L5.80019765625,9.90005L12.80019765625,9.90005L12.80019765625,11.9L5.80019765625,11.9Z" fill-rule="evenodd" fill="#000000" fill-opacity="0.6499999761581421"/></g></g></svg>