<svg xmlns="http://www.w3.org/2000/svg" xmlns:xlink="http://www.w3.org/1999/xlink" fill="none" version="1.1" width="16" height="16" viewBox="0 0 16 16"><g><g><path d="M4.469963673477173,6.9999965625L3.4181936734771727,14.8640765625C3.408570673477173,14.9360765625,3.464540673477173,14.9999765625,3.5371336734771726,14.9999765625L4.825153673477173,14.9999765625C4.885223673477173,14.9999765625,4.936043673477172,14.9555765625,4.944073673477172,14.8960765625L6.010003673477173,6.9999965625L8.395913673477173,7.0000065625C8.455633673477173,7.0000065625,8.506263673477173,6.9560965625,8.514703673477172,6.8969765625L8.680383673477174,5.7369765625C8.690703673477174,5.6646865625,8.634613673477173,5.6000065625,8.561583673477173,5.6000065625L6.160023673477173,5.6000065625L6.399893673477173,3.6614965625Q6.541493673477173,2.9600265625,7.020743673477173,2.6600065625C7.499993673477173,2.3599865625,8.060993673477173,2.2913065625,8.619983673477172,2.5599965625000003Q8.997163673477173,2.6932565625000002,9.460883673477174,2.9826765625C9.533963673477173,3.0282965625,9.629463673477172,2.9856465625,9.644673673477172,2.9008565625L9.832743673477172,1.8522365625C9.840693673477173,1.8078955625000002,9.824363673477173,1.7637095624999999,9.788393673477174,1.7365825625Q9.461683673477172,1.4901685625,9.332873673477174,1.4200135624999999C9.165803673477173,1.3290135625000001,8.631863673477174,1.0009765625,7.7998736734771725,1.0009765625Q6.967893673477173,1.0009765625,6.266843673477172,1.4490085625Q5.1477536734771725,2.1642065625,4.976753673477173,3.4812465625L4.680043673477172,5.6000065625L2.804022673477173,5.6000065625C2.744303673477173,5.6000065625,2.693671673477173,5.6439165625,2.6852286734771726,5.7030365625L2.519554533477173,6.8630365625C2.509229793477173,6.9353265625,2.565324973477173,7.0000065625,2.638349673477173,7.0000065625L4.469963673477173,6.9999965625ZM7.4405236734771725,8.9921165625L9.578233673477172,11.8992765625L7.439963673477173,14.8037765625C7.381773673477173,14.8827765625,7.437923673477173,14.9944765625,7.536083673477173,14.9948765625L8.879813673477173,15.0007765625C8.918143673477173,15.0009765625,8.954243673477173,14.9827765625,8.976973673477172,14.9518765625L10.400803673477172,13.0178765625L11.823123673477173,14.9520765625C11.845743673477173,14.9828765625,11.881633673477173,15.0010765625,11.919803673477173,15.0010765625L13.262733673477173,15.0010765625C13.361133673477173,15.0010765625,13.417733673477173,14.8891765625,13.359433673477174,14.8099765625L11.221733673477173,11.9027765625L13.360033673477172,8.9983365625C13.418233673477173,8.9192965625,13.362033673477173,8.807626562500001,13.263933673477172,8.8071965625L11.920093673477172,8.8012965625C11.881763673477172,8.8011265625,11.845653673477173,8.8192765625,11.822923673477172,8.8501465625L10.399153673477173,10.7841265625L8.976893673477173,8.8499365625C8.954283673477173,8.8191865625,8.918383673477173,8.801026562499999,8.880213673477172,8.801026562499999L7.537203673477173,8.801026562499999C7.4388336734771725,8.801026562499999,7.382253673477173,8.9128665625,7.4405236734771725,8.9921165625Z" fill-rule="evenodd" fill="#000000" fill-opacity="0.6499999761581421"/></g></g></svg>