<svg xmlns="http://www.w3.org/2000/svg" xmlns:xlink="http://www.w3.org/1999/xlink" fill="none" version="1.1" width="16" height="16" viewBox="0 0 16 16"><g><g><path d="M2.25,1.75L13.75,1.75C14.0261,1.75,14.25,1.973858,14.25,2.25L14.25,13.75C14.25,14.0261,14.0261,14.25,13.75,14.25L2.25,14.25C1.973858,14.25,1.75,14.0261,1.75,13.75L1.75,2.25C1.75,1.973858,1.973858,1.75,2.25,1.75ZM5.25,3.8999L5.25,2.95L2.95,2.95L2.95,13.05L9.75,13.05L9.75,12.1L5.700200000000001,12.1C5.424049999999999,12.1,5.200200000000001,11.8761,5.200200000000001,11.6L5.200200000000001,9C5.200200000000001,8.72386,5.424049999999999,8.5,5.700200000000001,8.5L6.9502,8.5L6.9502,7.4999L4.5,7.4999C4.22386,7.4999,4,7.27604,4,6.9999L4,4.399900000000001C4,4.12376,4.22386,3.8999,4.5,3.8999L5.25,3.8999ZM6.35,3.8999L10.3,3.8999C10.57614,3.8999,10.8,4.12376,10.8,4.399900000000001L10.8,6.9999C10.8,7.27604,10.57614,7.4999,10.3,7.4999L8.0502,7.4999L8.0502,8.5L11.5002,8.5C11.7763,8.5,12.0002,8.72386,12.0002,9L12.0002,11.6C12.0002,11.8761,11.7763,12.1,11.5002,12.1L10.85,12.1L10.85,13.05L13.05,13.05L13.05,2.95L6.35,2.95L6.35,3.8999ZM5.1,6.3999L5.1,4.9999L9.7,4.9999L9.7,6.3999L5.1,6.3999ZM6.3002,11L6.3002,9.6L10.9002,9.6L10.9002,11L6.3002,11Z" fill-rule="evenodd" fill="#000000" fill-opacity="0.6499999761581421"/></g></g></svg>