<svg xmlns="http://www.w3.org/2000/svg" xmlns:xlink="http://www.w3.org/1999/xlink" fill="none" version="1.1" width="16" height="16" viewBox="0 0 16 16"><g><g><path d="M1.87,2.95L10.63,2.95C10.69627,2.95,10.75,2.89627,10.75,2.83L10.75,1.87C10.75,1.8037258,10.69627,1.75,10.63,1.75L1.87,1.75C1.8037258,1.75,1.75,1.8037258,1.75,1.87L1.75,2.83C1.75,2.89627,1.8037258,2.95,1.87,2.95ZM8.80462,9.94208L6.5156,8.09326C6.45614,8.04523,6.45614,7.95458,6.5156,7.90655L8.80462,6.05773C8.883099999999999,5.99434,9.00002,6.0502,9.00002,6.15108L9.00002,7.3999L14.13,7.3999C14.1963,7.3999,14.25,7.45363,14.25,7.5199L14.25,8.4799C14.25,8.54618,14.1963,8.5999,14.13,8.5999L9.00002,8.5999L9.00002,9.84873C9.00002,9.94961,8.883099999999999,10.00547,8.80462,9.94208ZM1.87,14.25L10.63,14.25C10.69627,14.25,10.75,14.1963,10.75,14.13L10.75,13.17C10.75,13.1038,10.69627,13.05,10.63,13.05L1.87,13.05C1.8037258,13.05,1.75,13.1038,1.75,13.17L1.75,14.13C1.75,14.1963,1.8037258,14.25,1.87,14.25Z" fill-rule="evenodd" fill="#000000" fill-opacity="0.6499999761581421"/></g></g></svg>