<svg xmlns="http://www.w3.org/2000/svg" xmlns:xlink="http://www.w3.org/1999/xlink" fill="none" version="1.1" width="16" height="16" viewBox="0 0 16 16"><g><g><path d="M2.8501000000000003,6.35001L4,6.35001L4,5.25L2.25,5.25C1.973858,5.25,1.75,5.473858,1.75,5.75L1.75,13.75002C1.75,14.02617,1.973857,14.25002,2.249999,14.25002L2.26501,14.25002L11.8501,14.25003L11.8866,14.25003C12.0984,14.25003,12.2872,14.11658,12.3579,13.91692L14.1637,8.81691C14.279,8.49152,14.0376,8.15002,13.6924,8.15002L12.3501,8.15002L11.25,8.149989999999999L4.2046600000000005,8.15002C3.99719,8.15002,3.81127,8.27815,3.7374099999999997,8.47203L2.8500300000000003,10.80142L2.8501000000000003,6.35001ZM3.08696,13.15002L11.4199,13.15002L11.9758,11.70468L12.3501,10.73146L12.9199,9.250029999999999L4.65989,9.250029999999999L3.08696,13.15002ZM5.21655,6.35001L5.5498899999999995,6.60001L7.27075,6.60001L5.72021,5.359566C5.63155,5.2886406,5.5214,5.25,5.4078599999999994,5.25L5,5.25L5,6.35001L5.21655,6.35001ZM8.149899999999999,7.85001L8.149899999999999,7.60001L6.88322,7.60001L7.21655,7.85001L8.149899999999999,7.85001Z" fill-rule="evenodd" fill="#595959" fill-opacity="1"/></g><g><g><path d="M3.39990234375,1.75L5.39990234375,1.75C5.67604234375,1.75,5.89990234375,1.973858,5.89990234375,2.25L5.89990234375,4.25C5.89990234375,4.52614,5.67604234375,4.75,5.39990234375,4.75L3.39990234375,4.75C3.12376034375,4.75,2.89990234375,4.52614,2.89990234375,4.25L2.89990234375,2.25C2.89990234375,1.973858,3.12376034375,1.75,3.39990234375,1.75ZM3.89990234375,2.75L3.89990234375,3.75L4.89990234375,3.75L4.89990234375,2.75L3.89990234375,2.75Z" fill-rule="evenodd" fill="#3182DD" fill-opacity="1"/></g><g><path d="M8.14990234375,3.850006103515625L5.89990234375,3.850006103515625L5.89990234375,2.850006103515625L8.14990234375,2.850006103515625L8.14990234375,3.850006103515625Z" fill-rule="evenodd" fill="#8C8C8C" fill-opacity="1"/></g><g><path d="M4,8.19381L4,4.75L5,4.75L5,6.60001L8.149899999999999,6.60001L8.149899999999999,7.60001L5,7.60001L5,8.15002L4.204659,8.15002C4.132572,8.15002,4.0630866,8.16549,4,8.19381Z" fill-rule="evenodd" fill="#8C8C8C" fill-opacity="1"/></g><g><path d="M8.64990234375,1.75L12.44990234375,1.75C12.726042343749999,1.75,12.94990234375,1.973858,12.94990234375,2.25L12.94990234375,4.25C12.94990234375,4.52614,12.726042343749999,4.75,12.44990234375,4.75L8.64990234375,4.75C8.37376034375,4.75,8.14990234375,4.52614,8.14990234375,4.25L8.14990234375,2.25C8.14990234375,1.973858,8.37376034375,1.75,8.64990234375,1.75ZM9.14990234375,2.75L9.14990234375,3.75L11.94990234375,3.75L11.94990234375,2.75L9.14990234375,2.75Z" fill-rule="evenodd" fill="#3182DD" fill-opacity="1"/></g><g><path d="M12.44990234375,5.54998779296875L8.64990234375,5.54998779296875C8.37376034375,5.54998779296875,8.14990234375,5.77384579296875,8.14990234375,6.04998779296875L8.14990234375,8.15002779296875L12.94990234375,8.15002779296875L12.94990234375,6.04998779296875C12.94990234375,5.77384579296875,12.726042343749999,5.54998779296875,12.44990234375,5.54998779296875ZM9.14990234375,7.54998779296875L9.14990234375,6.54998779296875L11.94990234375,6.54998779296875L11.94990234375,7.54998779296875L9.14990234375,7.54998779296875Z" fill-rule="evenodd" fill="#3182DD" fill-opacity="1"/></g></g></g></svg>