<svg xmlns="http://www.w3.org/2000/svg" xmlns:xlink="http://www.w3.org/1999/xlink" fill="none" version="1.1" width="16" height="16" viewBox="0 0 16 16"><g><g transform="matrix(-1,0,0,1,28.5,0)"><path d="M14.75,1.75L26.25,1.75C26.5261,1.75,26.75,1.973858,26.75,2.25L26.75,13.75C26.75,14.0261,26.5261,14.25,26.25,14.25L14.75,14.25C14.473858,14.25,14.25,14.0261,14.25,13.75L14.25,2.25C14.25,1.973858,14.473858,1.75,14.75,1.75ZM15.45,2.95L15.45,13.05L25.55,13.05L25.55,2.95L15.45,2.95ZM22.9,6.9499C23.81127,6.9499,24.55,6.21117,24.55,5.2999C24.55,4.38863,23.81127,3.6498999999999997,22.9,3.6498999999999997C22.18154,3.6498999999999997,21.57034,4.10909,21.34385,4.75L19.24998,4.75Q18.46297,4.75,17.90647,5.3065Q17.34998,5.863,17.34998,6.65001Q17.34998,7.43701,17.90647,7.99351Q18.46297,8.55001,19.24998,8.55001L21.74994,8.55001Q22.0813,8.55001,22.31561,8.784320000000001Q22.54993,9.018640000000001,22.54993,9.35Q22.54993,9.681370000000001,22.31561,9.91568Q22.0813,10.14999,21.74994,10.14999L19.656109999999998,10.14999C19.42958,9.509170000000001,18.81841,9.050049999999999,18.10001,9.050049999999999C17.18874,9.050049999999999,16.45001,9.78878,16.45001,10.70005C16.45001,11.61132,17.18874,12.35,18.10001,12.35C18.81845,12.35,19.42965,11.8909,19.65614,11.24999L21.74994,11.24999Q22.53694,11.24999,23.093429999999998,10.6935Q23.649929999999998,10.137,23.649929999999998,9.35Q23.649929999999998,8.562999999999999,23.093429999999998,8.006509999999999Q22.53694,7.45001,21.74994,7.45001L19.24998,7.45001Q18.91861,7.45001,18.68429,7.2157Q18.44998,6.98138,18.44998,6.65001Q18.44998,6.31863,18.68429,6.08432Q18.91861,5.85,19.24998,5.85L21.34392,5.85C21.57046,6.4908,22.18162,6.9499,22.9,6.9499ZM22.9,4.6998999999999995C23.23137,4.6998999999999995,23.5,4.9685299999999994,23.5,5.2999C23.5,5.631270000000001,23.23137,5.8999,22.9,5.8999C22.56863,5.8999,22.3,5.631270000000001,22.3,5.2999C22.3,4.9685299999999994,22.56863,4.6998999999999995,22.9,4.6998999999999995ZM18.10001,10.10005C18.43138,10.10005,18.70001,10.36868,18.70001,10.70005C18.70001,11.03142,18.43138,11.30005,18.10001,11.30005C17.76864,11.30005,17.50001,11.03142,17.50001,10.70005C17.50001,10.36868,17.76864,10.10005,18.10001,10.10005Z" fill-rule="evenodd" fill="#000000" fill-opacity="0.6499999761581421"/></g></g></svg>