<svg xmlns="http://www.w3.org/2000/svg" xmlns:xlink="http://www.w3.org/1999/xlink" fill="none" version="1.1" width="16" height="16" viewBox="0 0 16 16"><defs><clipPath id="master_svg0_6031_5705"><rect x="0" y="0" width="16" height="16" rx="0"/></clipPath></defs><g clip-path="url(#master_svg0_6031_5705)"><g><path d="M14.465665597915649,6.370268671875L11.595265597915649,9.168708671875L12.27346559791565,13.120238671875C12.320265597915649,13.392138671875,12.13746559791565,13.649938671875,11.86566559791565,13.696838671875C11.757765597915649,13.715538671875,11.64526559791565,13.698438671875,11.54846559791565,13.646838671875L7.99999559791565,11.781238671875L4.45156559791565,13.646838671875C4.2078155979156495,13.776538671875,3.9046855979156496,13.681238671875,3.7765655979156496,13.437438671875C3.7249955979156493,13.340538671875,3.7078155979156495,13.228038671875,3.7265655979156493,13.120238671875L4.40468559791565,9.168708671875L1.5343745979156493,6.370268671875C1.3359374979156493,6.176518671875,1.3328124979156495,5.860898671875,1.5249995979156494,5.662458671875C1.6015625979156494,5.584328671875,1.7015625979156495,5.532768671875,1.8109375979156495,5.517148671875L5.77812559791565,4.940578671875L7.5515655979156495,1.3452696718750001C7.6749955979156494,1.098394471875,7.974995597915649,0.9968319718750001,8.221875597915648,1.118706971875C8.320315597915648,1.167144671875,8.399995597915648,1.2468316718749999,8.44843559791565,1.3452696718750001L10.22187559791565,4.940578671875L14.189065597915649,5.517148671875C14.46246559791565,5.557768671875,14.653165597915649,5.810898671875,14.61096559791565,6.084328671875C14.595265597915649,6.193708671875,14.54376559791565,6.293708671875,14.465665597915649,6.370268671875ZM9.42482559791565,6.037348671875L12.612865597915649,6.500678671875L10.305895597915649,8.749888671875L10.85064559791565,11.924238671875L7.99999559791565,10.425458671875L5.149355597915649,11.924238671875L5.69410559791565,8.749888671875L3.3871255979156496,6.500678671875L6.575175597915649,6.037348671875L7.99999559791565,3.148768671875L9.42482559791565,6.037348671875Z" fill-rule="evenodd" fill="#000000" fill-opacity="0.6499999761581421"/></g></g></svg>