<svg xmlns="http://www.w3.org/2000/svg" xmlns:xlink="http://www.w3.org/1999/xlink" fill="none" version="1.1" width="16" height="16" viewBox="0 0 16 16"><g><g><path d="M13.75,4.700106103515624L4.58001,4.700106103515624L4.58001,2.220006103515625C4.58001,2.153731903515625,4.5262899999999995,2.100006103515625,4.4600100000000005,2.100006103515625L3.54001,2.100006103515625C3.4737400000000003,2.100006103515625,3.42001,2.153731903515625,3.42001,2.220006103515625L3.42001,4.700106103515624L2.25,4.700106103515624C1.973858,4.700106103515624,1.75,4.923966103515625,1.75,5.200106103515624L1.75,10.800106103515626C1.75,11.076246103515626,1.973858,11.300106103515626,2.25,11.300106103515626L11.42001,11.300106103515626L11.42001,13.780106103515624C11.42001,13.846406103515625,11.47374,13.900106103515625,11.54001,13.900106103515625L12.46,13.900106103515625C12.5263,13.900106103515625,12.58,13.846406103515625,12.58,13.780106103515624L12.58,11.300106103515626L13.75,11.300106103515626C14.0261,11.300106103515626,14.25,11.076246103515626,14.25,10.800106103515626L14.25,5.200106103515624C14.25,4.923966103515625,14.0261,4.700106103515624,13.75,4.700106103515624ZM2.91,5.8601061035156246L2.91,10.140106103515626L13.09,10.140106103515626L13.09,5.8601061035156246L2.91,5.8601061035156246ZM6.5,6.499906103515625L4.5,6.499906103515625C4.22386,6.499906103515625,4,6.723766103515625,4,6.999906103515625L4,8.999906103515624C4,9.276046103515625,4.22386,9.499906103515624,4.5,9.499906103515624L6.5,9.499906103515624C6.77614,9.499906103515624,7,9.276046103515625,7,8.999906103515624L7,6.999906103515625C7,6.723766103515625,6.77614,6.499906103515625,6.5,6.499906103515625ZM11.5,6.499906103515625L9.5,6.499906103515625C9.22386,6.499906103515625,9,6.723766103515625,9,6.999906103515625L9,8.999906103515624C9,9.276046103515625,9.22386,9.499906103515624,9.5,9.499906103515624L11.5,9.499906103515624C11.7761,9.499906103515624,12,9.276046103515625,12,8.999906103515624L12,6.999906103515625C12,6.723766103515625,11.7761,6.499906103515625,11.5,6.499906103515625ZM5,8.499906103515624L5,7.499906103515625L6,7.499906103515625L6,8.499906103515624L5,8.499906103515624ZM10,8.499906103515624L10,7.499906103515625L11,7.499906103515625L11,8.499906103515624L10,8.499906103515624Z" fill-rule="evenodd" fill="#000000" fill-opacity="0.6499999761581421"/></g></g></svg>