<svg xmlns="http://www.w3.org/2000/svg" xmlns:xlink="http://www.w3.org/1999/xlink" fill="none" version="1.1" width="16" height="16" viewBox="0 0 16 16"><g><g><path d="M13.75,1.75L2.25,1.75C1.973858,1.75,1.75,1.973858,1.75,2.25L1.75,13.75C1.75,14.0261,1.973858,14.25,2.25,14.25L13.75,14.25C14.0261,14.25,14.25,14.0261,14.25,13.75L14.25,2.25C14.25,1.973858,14.0261,1.75,13.75,1.75ZM2.95,13.05L2.95,2.95L13.05,2.95L13.05,13.05L2.95,13.05ZM5.95001,6.9647C6.53261,6.75878,6.95001,6.20316,6.95001,5.550050000000001C6.95001,4.72162,6.27844,4.050050000000001,5.45001,4.050050000000001C4.62158,4.050050000000001,3.95001,4.72162,3.95001,5.550050000000001C3.95001,6.20316,4.36742,6.75878,4.95001,6.9647L4.95001,9.0353C4.36742,9.24122,3.95001,9.79684,3.95001,10.44995C3.95001,11.27838,4.62158,11.95,5.45001,11.95C6.27844,11.95,6.95001,11.27838,6.95001,10.44995C6.95001,9.79684,6.53261,9.24122,5.95001,9.0353L5.95001,6.9647ZM7.97001,5.79995L11.73001,5.79995C11.7963,5.79995,11.85,5.746230000000001,11.85,5.67995L11.85,4.81995C11.85,4.75368,11.7963,4.699949999999999,11.73001,4.699949999999999L7.97001,4.699949999999999C7.90373,4.699949999999999,7.85001,4.75368,7.85001,4.81995L7.85001,5.67995C7.85001,5.746230000000001,7.90373,5.79995,7.97001,5.79995ZM5.95001,5.550050000000001C5.95001,5.27391,5.7261500000000005,5.050050000000001,5.45001,5.050050000000001C5.17387,5.050050000000001,4.95001,5.27391,4.95001,5.550050000000001C4.95001,5.82619,5.17387,6.05005,5.45001,6.05005C5.7261500000000005,6.05005,5.95001,5.82619,5.95001,5.550050000000001ZM11.7301,8.549949999999999L7.9701,8.549949999999999C7.90382,8.549949999999999,7.8501,8.49623,7.8501,8.42995L7.8501,7.56995C7.8501,7.50368,7.90382,7.44995,7.9701,7.44995L11.7301,7.44995C11.7964,7.44995,11.8501,7.50368,11.8501,7.56995L11.8501,8.42995C11.8501,8.49623,11.7964,8.549949999999999,11.7301,8.549949999999999ZM5.95001,10.44995C5.95001,10.17381,5.7261500000000005,9.94995,5.45001,9.94995C5.17387,9.94995,4.95001,10.17381,4.95001,10.44995C4.95001,10.72609,5.17387,10.94995,5.45001,10.94995C5.7261500000000005,10.94995,5.95001,10.72609,5.95001,10.44995ZM11.73001,11.29995L7.97001,11.29995C7.90373,11.29995,7.85001,11.24623,7.85001,11.17995L7.85001,10.31995C7.85001,10.25368,7.90373,10.19995,7.97001,10.19995L11.73001,10.19995C11.7963,10.19995,11.85,10.25368,11.85,10.31995L11.85,11.17995C11.85,11.24623,11.7963,11.29995,11.73001,11.29995Z" fill-rule="evenodd" fill="#000000" fill-opacity="0.6499999761581421"/></g></g></svg>