<svg xmlns="http://www.w3.org/2000/svg" xmlns:xlink="http://www.w3.org/1999/xlink" fill="none" version="1.1" width="16" height="16" viewBox="0 0 16 16"><g><g><path d="M2.268375,4.551568125L7.21254,1.799450525C7.36374,1.715286825,7.54771,1.715287325,7.69891,1.799451625L12.6432,4.551688125L12.9049,4.697338125C13.0634,4.785578125,13.1617,4.952768125,13.1617,5.134198125L13.1619,9.102178125C13.1619,9.201428125,13.0512,9.261368125,12.9688,9.205998125Q12.6074,8.963008125,12.2023,8.803658125C12.1556,8.785278125,12.1251,8.740868125,12.1251,8.690658124999999L12.125,5.961798125L7.95608,8.282228125L7.95608,9.195498125C7.95608,9.234498125,7.93811,9.270218125,7.90658,9.293168125000001Q7.51708,9.576728124999999,7.18053,9.961668125C7.10485,10.048238125,6.95608,9.995688125,6.95608,9.880698125L6.95608,8.282728125L2.78679,5.961828125L2.78682,10.615008125L6.77802,12.836628125C6.7942,12.845628125,6.80784,12.857928125,6.8184,12.873228125Q7.26046,13.509928125,7.81237,13.936228125C7.88248,13.990428125,7.87763,14.100628125,7.80021,14.143728125L7.69882,14.200128125C7.54763,14.284328125,7.36367,14.284328125,7.21248,14.200128125L2.006863,11.302528125C1.8483343,11.214288125,1.7500468493,11.047088125,1.7500439882,10.865658125L1.75,8.112418125L1.75,5.134038125C1.75,4.952598125,1.8482872,4.785398125,2.006818,4.697158125L2.268375,4.551568125ZM2.268375,4.551568125L3.27609,5.112438125000001L7.45575,2.785758125L11.63581,5.112428125L7.45564,7.439128125L2.268375,4.551568125ZM7.05888,3.452838125L7.05888,3.934718125C7.05888,4.000998125000001,7.1126,4.054718125,7.17888,4.054718125L7.73888,4.054718125C7.80515,4.054718125,7.85888,4.000998125000001,7.85888,3.934718125L7.85888,3.452838125C7.85888,3.386568125,7.80515,3.3328381250000003,7.73888,3.3328381250000003L7.17888,3.3328381250000003C7.1126,3.3328381250000003,7.05888,3.386568125,7.05888,3.452838125ZM7.05888,4.896598125000001L7.05888,5.378478125C7.05888,5.444758125,7.1126,5.498478125,7.17888,5.498478125L7.73888,5.498478125C7.80515,5.498478125,7.85888,5.444758125,7.85888,5.378478125L7.85888,4.896598125000001C7.85888,4.830328124999999,7.80515,4.776598125,7.73888,4.776598125L7.17888,4.776598125C7.1126,4.776598125,7.05888,4.830328124999999,7.05888,4.896598125000001ZM7.05888,6.340358125L7.05888,6.822238125C7.05888,6.888518125,7.1126,6.942238125,7.17888,6.942238125L7.73888,6.942238125C7.80515,6.942238125,7.85888,6.888518125,7.85888,6.822238125L7.85888,6.340358125C7.85888,6.274088125,7.80515,6.220358125,7.73888,6.220358125L7.17888,6.220358125C7.1126,6.220358125,7.05888,6.274088125,7.05888,6.340358125ZM9.26359,8.575188125L9.26436,8.575628125C9.30278,8.597378124999999,9.281659999999999,8.646848125,9.23902,8.658298125Q8.793,8.778138125,8.39437,8.988698124999999L8.349689999999999,8.963828125C8.28906,8.930078125,8.2696,8.852088125,8.30729,8.793808125L8.6034,8.335978125C8.63772,8.282918125,8.70731,8.265558125,8.76252,8.296288125L9.26359,8.575188125ZM6.00587,8.365278125L5.5048200000000005,8.644188125C5.444179999999999,8.677948125,5.42474,8.755948125,5.4624299999999995,8.814218125L5.75856,9.272038125C5.79288,9.325098125,5.86247,9.342448125,5.91768,9.311718124999999L6.41873,9.032798125C6.47937,8.999048125,6.49881,8.921048125,6.46112,8.862778125L6.16499,8.404948125C6.13067,8.351888125,6.06108,8.334538125,6.00587,8.365278125ZM10.5,8.999998125000001C12.1523,8.999998125000001,13.3849,9.816948125,14.2003,11.440278125C14.2666,11.574398125,14.2666,11.727228125,14.2003,11.858928125C13.3849,13.483028125,12.1532,14.300028125,10.5,14.300028125C8.84767,14.300028125,7.61509,13.483028125,6.79967,11.859728125C6.73344,11.727228125,6.73344,11.572778125,6.79967,11.441088125C7.61509,9.816948125,8.84681,8.999998125000001,10.5,8.999998125000001ZM4.58345,9.157088125L4.0824,9.435998125000001C4.02177,9.469758125,4.00232,9.547758125,4.0400100000000005,9.606028125L4.33614,10.063848125C4.37046,10.116908125,4.440049999999999,10.134258125,4.49527,10.103528125L4.996309999999999,9.824608125C5.0569500000000005,9.790858125,5.0764,9.712858125,5.03871,9.654588125L4.74258,9.196758124999999C4.70826,9.143698125,4.638669999999999,9.126348125,4.58345,9.157088125ZM10.5,13.450028125C9.249220000000001,13.450028125,8.36591,12.906828125,7.71997,11.644868125C8.36591,10.382928125,9.249220000000001,9.869998125,10.5,9.869998125C11.7508,9.869998125,12.6341,10.382928125,13.28,11.644868125C12.6349,12.906828125,11.7516,13.450028125,10.5,13.450028125ZM2.79,10.615008125L2.78999,10.155448125L3.16104,9.948898125C3.21625,9.918158125,3.2858400000000003,9.935508125,3.32016,9.988578125L3.6162900000000002,10.446398125C3.65398,10.504668125,3.6345400000000003,10.582668125,3.5739,10.616418125L3.18323,10.833898125L2.79,10.615008125ZM10.5,13.080728125C11.30254,13.080728125,11.9531,12.440128125,11.9531,11.650008125C11.9531,10.859868125,11.30254,10.219328125,10.5,10.219328125C9.69746,10.219328125,9.04688,10.859868125,9.04688,11.650008125C9.04688,12.440128125,9.69746,13.080728125,10.5,13.080728125ZM11.16,11.651238125C11.16,12.016428125,10.8645,12.312528125,10.5,12.312528125C10.13549,12.312528125,9.84,12.016428125,9.84,11.651238125C9.84,11.286038125,10.13549,10.989988125,10.5,10.989988125C10.8645,10.989988125,11.16,11.286038125,11.16,11.651238125Z" fill-rule="evenodd" fill="#000000" fill-opacity="0.6499999761581421"/></g></g></svg>