<svg xmlns="http://www.w3.org/2000/svg" xmlns:xlink="http://www.w3.org/1999/xlink" fill="none" version="1.1" width="16" height="16" viewBox="0 0 16 16"><g><g><path d="M13.245,13.48258369140625L14.9329,12.13224369140625C14.993,12.08420369140625,14.993,11.99287369140625,14.9329,11.94483369140625L13.245,10.59450369140625C13.1664,10.53165369140625,13.05,10.58759369140625,13.05,10.68821369140625L13.05,11.35669369140625Q12.2084,11.23845369140625,11.4543,10.79697369140625Q10.42451,10.194023691406251,9.84047,9.15336369140625L7.99254,5.86069369140625Q7.11648,4.29971369140625,5.57176,3.39527769140625Q4.02703,2.49084472660625,2.2370099999999997,2.49084472660625L1.12,2.49084472660625C1.0537258,2.49084472660625,1,2.54457089140625,1,2.61084469140625L1,3.57084369140625C1,3.63712369140625,1.0537258,3.6908436914062497,1.12,3.6908436914062497L2.2370099999999997,3.6908436914062497Q3.70157,3.6908436914062497,4.96544,4.43083369140625Q6.2293,5.17082369140625,6.94608,6.44799369140625L8.79401,9.740663691406251Q9.53734,11.06514369140625,10.84801,11.83253369140625Q11.884,12.43911369140625,13.05,12.56618369140625L13.05,13.38888369140625C13.05,13.48948369140625,13.1664,13.54538369140625,13.245,13.48258369140625ZM13.245,2.51737209140625L14.9329,3.86769369140625C14.993,3.91573369140625,14.993,4.00706369140625,14.9329,4.05510369140625L13.245,5.40543369140625C13.1664,5.46828369140625,13.05,5.4123436914062495,13.05,5.31172369140625L13.05,4.64325369140625Q12.2084,4.76148369140625,11.4543,5.20296369140625Q10.42451,5.80591369140625,9.84047,6.84657369140625L9.65178,7.18278369140625L8.969380000000001,5.96685369140625Q9.68555,4.84802369140625,10.84801,4.16740369140625Q11.884,3.56082369140625,13.05,3.43370869140625L13.05,2.61107669140625C13.05,2.51045609140625,13.1664,2.45451449140625,13.245,2.51737209140625ZM5.88,8.59996369140625L1.12,8.59996369140625C1.0537258,8.59996369140625,1,8.54623369140625,1,8.479963691406251L1,7.51996369140625C1,7.45369369140625,1.0537258,7.39996369140625,1.12,7.39996369140625L5.88,7.39996369140625C5.94627,7.39996369140625,6,7.45369369140625,6,7.51996369140625L6,8.479963691406251C6,8.54623369140625,5.94627,8.59996369140625,5.88,8.59996369140625ZM7.99254,10.13924369140625L8.04637,10.04333369140625L7.35834,8.81738369140625L6.94608,9.551943691406251Q6.2293,10.82911369140625,4.96544,11.56910369140625Q3.70157,12.30909369140625,2.2370099999999997,12.30909369140625L1.12,12.30909369140625C1.0537258,12.30909369140625,1,12.36282369140625,1,12.42909369140625L1,13.38908369140625C1,13.45538369140625,1.0537258,13.50908369140625,1.12,13.50908369140625L2.2370099999999997,13.50908369140625Q4.02703,13.50908369140625,5.57176,12.60468369140625Q7.11648,11.70022369140625,7.99254,10.13924369140625Z" fill-rule="evenodd" fill="#000000" fill-opacity="0.6499999761581421"/></g></g></svg>