<svg xmlns="http://www.w3.org/2000/svg" xmlns:xlink="http://www.w3.org/1999/xlink" fill="none" version="1.1" width="16" height="16" viewBox="0 0 16 16"><g><g><path d="M5.070177656249999,3.0000622070312497L11.00000765625,3.0000622070312497C11.27614765625,3.0000622070312497,11.50000765625,3.22392220703125,11.50000765625,3.50006220703125L11.50000765625,6.70006220703125C11.50000765625,6.97620220703125,11.27614765625,7.20006220703125,11.00000765625,7.20006220703125L8.16978765625,7.20006220703125L8.16978765625,8.800112207031251L13.39999765625,8.800112207031251C13.67609765625,8.800112207031251,13.89999765625,9.02397220703125,13.89999765625,9.30011220703125L13.89999765625,12.50011220703125C13.89999765625,12.77621220703125,13.67609765625,13.00011220703125,13.39999765625,13.00011220703125L12.07017765625,13.00011220703125L12.07017765625,14.88001220703125C12.07017765625,14.94621220703125,12.01644765625,15.00001220703125,11.95017765625,15.00001220703125L11.05017765625,15.00001220703125C10.98389765625,15.00001220703125,10.93017765625,14.94621220703125,10.93017765625,14.88001220703125L10.93017765625,13.00011220703125L4.999997656250001,13.00011220703125C4.72385765625,13.00011220703125,4.499997656250001,12.77621220703125,4.499997656250001,12.50011220703125L4.499997656250001,9.30011220703125C4.499997656250001,9.02397220703125,4.72385765625,8.800112207031251,4.999997656250001,8.800112207031251L7.02978765625,8.800112207031251L7.02978765625,7.20006220703125L2.60000565625,7.20006220703125C2.32386365625,7.20006220703125,2.10000610355,6.97620220703125,2.10000610355,6.70006220703125L2.10000610355,3.50006220703125C2.10000610355,3.22392220703125,2.32386365625,3.0000622070312497,2.60000665625,3.0000622070312497L3.9301776562499997,3.0000622070312497L3.9301776562499997,1.32001220703125C3.9301776562499997,1.25373800703125,3.98389765625,1.20001220703125,4.05017765625,1.20001220703125L4.95017765625,1.20001220703125C5.0164476562499996,1.20001220703125,5.070177656249999,1.25373800703125,5.070177656249999,1.32001220703125L5.070177656249999,3.0000622070312497ZM3.24000765625,6.06006220703125L3.24000765625,4.140062207031249L10.36000765625,4.140062207031249L10.36000765625,6.06006220703125L3.24000765625,6.06006220703125ZM5.639997656249999,11.86011220703125L5.639997656249999,9.94011220703125L12.75999765625,9.94011220703125L12.75999765625,11.86011220703125L5.639997656249999,11.86011220703125Z" fill-rule="evenodd" fill="#000000" fill-opacity="0.6499999761581421"/></g></g></svg>