<svg xmlns="http://www.w3.org/2000/svg" xmlns:xlink="http://www.w3.org/1999/xlink" fill="none" version="1.1" width="16" height="16" viewBox="0 0 16 16"><g><g transform="matrix(-1,0,0,1,28.699951171875,0)"><path d="M20.9234255859375,14.302802811813354L26.7735755859375,11.377962811813354C26.9429755859375,11.293272811813354,27.0499755859375,11.120132811813354,27.0499755859375,10.930742811813355L27.0500755859375,8.899842811813354L27.0500755859375,5.069092811813355C27.0499755859375,4.879702811813354,26.9429755859375,4.706572811813354,26.7736755859375,4.621872811813354L20.9234855859375,1.6968263118133544C20.7827255859375,1.6264433118133546,20.6170355859375,1.6264454118133544,20.4762655859375,1.6968320118133544L14.6264885859375,4.621882811813355C14.4571055859375,4.706582811813354,14.3501095019375,4.879702811813354,14.3501055149375,5.069082811813354L14.3499820927875,10.930732811813355C14.3499781049775,11.120122811813355,14.4569825859375,11.293262811813355,14.6263805859375,11.377962811813354L20.4762255859375,14.302802811813354C20.6169855859375,14.373202811813355,20.7826655859375,14.373202811813355,20.9234255859375,14.302802811813354ZM25.2701755859375,5.0999728118133545L20.6998955859375,2.8148628118133545L19.1298655859375,3.5999228118133546L23.7000155859375,5.884972811813355L25.2701755859375,5.0999728118133545ZM22.4701155859375,6.499862811813355L17.9000555859375,4.214862811813354L16.1299155859375,5.099982811813355L20.6998555859375,7.384922811813355L22.4701155859375,6.499862811813355ZM23.1497055859375,7.389912811813354L23.1496755859375,9.302502811813355C23.1496755859375,9.392462811813354,23.244995585937502,9.450432811813354,23.324875585937498,9.409052811813353L24.1849255859375,8.963472811813354C24.224735585937502,8.942842811813353,24.249725585937497,8.901752811813354,24.249725585937497,8.856922811813355L24.249725585937497,6.839952811813355L25.9499755859375,5.989872811813354L25.9499755859375,10.559902811813355L21.2500655859375,12.909702811813354L21.2502355859375,8.339572811813355L23.1497055859375,7.389912811813354ZM15.4500855859375,5.989902811813354L15.4499855859375,10.559922811813355L20.1500655859375,12.909902811813355L20.1502355859375,8.339952811813355L15.4500855859375,5.989902811813354Z" fill-rule="evenodd" fill="#000000" fill-opacity="0.6499999761581421"/></g></g></svg>