<svg xmlns="http://www.w3.org/2000/svg" xmlns:xlink="http://www.w3.org/1999/xlink" fill="none" version="1.1" width="16" height="16" viewBox="0 0 16 16"><g><g><path d="M7.21007,1.785357896484375L2.2671580000000002,4.536763896484375L1.989099,4.6915538964843755C1.8415056,4.7737138964843755,1.750000912452,4.929373896484375,1.75000238419,5.098293896484375L1.7500468429,10.851533896484375C1.750048245,11.032973896484375,1.8483359,11.200163896484375,2.006866,11.288413896484375L6.82164,13.968493896484375C6.90162,14.012993896484375,7,13.955193896484374,7,13.863593896484375L7,13.016593896484375C7,12.973093896484375,6.97641,12.932993896484374,6.93836,12.911793896484374L2.78682,10.600893896484376L2.78679,5.947703896484375L2.7869200000000003,5.949213896484375L7.05593,8.325483896484375L7.05607,8.530073896484375C7.05612,8.596313896484375,7.10983,8.649993896484375,7.17607,8.649993896484375L7.6001,8.649993896484375L7.93609,8.649993896484375C8.00239,8.649993896484375,8.05613,8.596233896484375,8.056090000000001,8.529933896484376L8.05593,8.212533896484375L12.125,5.947683896484375L12.125,8.887353896484374C12.125,8.980773896484376,12.2272,9.039213896484375,12.3104,8.996683896484374Q12.6698,8.812913896484375,13.0598,8.737713896484376C13.118,8.726503896484374,13.1621,8.676273896484375,13.1621,8.617093896484375L13.1618,5.121423896484375C13.1617,4.9400038964843755,13.0634,4.772833896484375,12.9049,4.684593896484375L12.642,4.538253896484375L7.69644,1.785358896484375C7.54524,1.701195496484375,7.36127,1.701195396484375,7.21007,1.785357896484375M9.25182,8.589993896484376L8.69602,8.589993896484376L8.68247,8.589973896484375L8.53846,8.589973896484375C8.49091,8.589973896484375,8.46226,8.537313896484374,8.48808,8.497383896484376L8.6034,8.319073896484376C8.63772,8.266013896484374,8.70731,8.248663896484375,8.76252,8.279393896484375L9.26359,8.558293896484376C9.263729999999999,8.558373896484376,9.26388,8.558453896484375,9.26403,8.558543896484375C9.2767,8.569453896484376,9.26854,8.589993896484376,9.25182,8.589993896484376M2.2671580000000002,4.536763896484375L7.45564,7.425003896484375L7.45447,7.424283896484375L11.63351,5.098433896484375L7.45328,2.771663896484375L3.27487,5.097653896484375L2.2671580000000002,4.536763896484375ZM7.05888,3.4359438964843747L7.05888,3.917823896484375C7.05888,3.984093896484375,7.1126,4.037823896484375,7.17888,4.037823896484375L7.73888,4.037823896484375C7.80515,4.037823896484375,7.85888,3.984093896484375,7.85888,3.917823896484375L7.85888,3.4359438964843747C7.85888,3.3696738964843753,7.80515,3.315943896484375,7.73888,3.315943896484375L7.17888,3.315943896484375C7.1126,3.315943896484375,7.05888,3.3696738964843753,7.05888,3.4359438964843747ZM7.05888,4.879703896484375L7.05888,5.361583896484375C7.05888,5.427853896484375,7.1126,5.481583896484375,7.17888,5.481583896484375L7.73888,5.481583896484375C7.80515,5.481583896484375,7.85888,5.427853896484375,7.85888,5.361583896484375L7.85888,4.879703896484375C7.85888,4.813433896484375,7.80515,4.759703896484375,7.73888,4.759703896484375L7.17888,4.759703896484375C7.1126,4.759703896484375,7.05888,4.813433896484375,7.05888,4.879703896484375ZM7.05888,6.323463896484375L7.05888,6.805343896484375C7.05888,6.871613896484375,7.1126,6.925343896484375,7.17888,6.925343896484375L7.73888,6.925343896484375C7.80515,6.925343896484375,7.85888,6.871613896484375,7.85888,6.805343896484375L7.85888,6.323463896484375C7.85888,6.257193896484375,7.80515,6.203463896484375,7.73888,6.203463896484375L7.17888,6.203463896484375C7.1126,6.203463896484375,7.05888,6.257193896484375,7.05888,6.323463896484375ZM6.00587,8.348373896484375L5.5048200000000005,8.627293896484375C5.444179999999999,8.661043896484376,5.42474,8.739043896484375,5.4624299999999995,8.797313896484376L5.75856,9.255143896484375C5.79288,9.308203896484375,5.86247,9.325553896484376,5.91768,9.294813896484374L6.41873,9.015903896484375C6.47937,8.982143896484375,6.49881,8.904143896484374,6.46112,8.845873896484374L6.16499,8.388053896484376C6.13067,8.334993896484374,6.06108,8.317643896484375,6.00587,8.348373896484375ZM4.58345,9.140183896484375L4.0824,9.419103896484376C4.02177,9.452853896484374,4.00232,9.530853896484375,4.0400100000000005,9.589123896484374L4.33614,10.046953896484375C4.37046,10.100013896484375,4.440049999999999,10.117363896484376,4.49527,10.086623896484374L4.996309999999999,9.807713896484374C5.0569500000000005,9.773953896484375,5.0764,9.695963896484376,5.03871,9.637683896484376L4.74258,9.179863896484374C4.70826,9.126803896484375,4.638669999999999,9.109453896484375,4.58345,9.140183896484375ZM2.79,10.598113896484374L2.78999,10.138543896484375L3.16104,9.932003896484375C3.21625,9.901263896484375,3.2858400000000003,9.918613896484375,3.32016,9.971673896484376L3.6162900000000002,10.429503896484375C3.65398,10.487773896484375,3.6345400000000003,10.565763896484375,3.5739,10.599523896484374L3.18323,10.816993896484375L2.79,10.598113896484374Z" fill-rule="evenodd" fill="#000000" fill-opacity="0.6499999761581421"/></g><g transform="matrix(1,0,0,-1,0,28.959983825683594)"><g><path d="M14.401920005960465,15.506191912841796L13.637040005960465,16.281231912841797C13.586800005960464,16.3321419128418,13.500100005960466,16.296561912841796,13.500100005960466,16.225041912841796L13.500100005960466,15.911941912841797Q13.046100005960465,15.933061912841797,12.657850005960466,16.180031912841798Q12.233310005960465,16.450091912841796,12.020050005960464,16.905821912841798L11.435440005960466,18.155101912841797Q11.046790005960464,18.985651912841796,10.273070005960465,19.477821912841797Q9.499360005960465,19.970001912841795,8.582370005960465,19.970001912841795L7.4800000059604645,19.970001912841795C7.435817205960465,19.970001912841795,7.4000000059604645,19.934181912841797,7.4000000059604645,19.890001912841797L7.4000000059604645,19.150001912841798C7.4000000059604645,19.105821912841797,7.435817205960465,19.070001912841796,7.4800000059604645,19.070001912841796L8.582370005960465,19.070001912841796Q9.237370005960464,19.070001912841796,9.790020005960464,18.718451912841797Q10.342670005960464,18.366891912841798,10.620280005960463,17.773641912841796L11.204890005960465,16.524361912841798Q11.529190005960466,15.831331912841797,12.174790005960464,15.420652912841797Q12.784190005960465,15.033004912841797,13.500100005960466,15.011263912841796L13.500100005960466,14.674946912841797C13.500100005960466,14.603419912841797,13.586800005960464,14.567842912841797,13.637040005960465,14.618752912841797L14.401920005960465,15.393798912841797C14.432660005960464,15.424953912841797,14.432660005960464,15.475032912841797,14.401920005960465,15.506191912841796" fill-rule="evenodd" fill="#000000" fill-opacity="0.6499999761581421"/></g><g><path d="M10.99155234375,16.07380700307846Q10.91089234375,16.20888700307846,10.842592343749999,16.354837003078462L10.641432343750001,16.784717003078462C10.613372343750001,16.84467700307846,10.52682234375,16.84511700307846,10.49204234375,16.78878700307846Q10.22699234375,16.35958700307846,9.78992234375,16.081557003078462Q9.23727234375,15.730009003078461,8.58228234375,15.730009003078461L7.47990224375,15.730009003078461C7.43571954375,15.730009003078461,7.39990234375,15.694192003078461,7.39990234375,15.65000900307846L7.39990234375,14.91000940307846C7.39990234375,14.86582660307846,7.43571954375,14.830009400878462,7.47990234375,14.830009400878462L8.58228234375,14.830009400878462Q9.49927234375,14.830009400878462,10.27298234375,15.32218100307846Q10.68089234375,15.58166600307846,10.98178234375,15.93520700307846C11.01509234375,15.97434700307846,11.01791234375,16.02967700307846,10.99155234375,16.07380700307846M11.56609234375,18.84749700307846Q11.82259234375,19.15543700307846,12.174652343750001,19.37938700307846Q12.78406234375,19.76703700307846,13.500002343750001,19.78871700307846L13.500002343750001,20.12497700307846C13.500002343750001,20.196517003078462,13.586712343750001,20.232087003078462,13.63695234375,20.18116700307846L14.40183234375,19.40582700307846C14.43257234375,19.37466700307846,14.43256234375,19.32458700307846,14.401812343749999,19.29343700307846L13.63693234375,18.518687003078462C13.586682343749999,18.46778700307846,13.500002343750001,18.50336700307846,13.500002343750001,18.57488700307846L13.500002343750001,18.888047003078462Q13.04597234375,18.86698700307846,12.65771234375,18.62000700307846Q12.233262343749999,18.35000700307846,12.020052343749999,17.89438700307846C12.01589234375,17.88548700307846,12.00324234375,17.88548700307846,11.99908234375,17.89438700307846L11.79774234375,18.32464700307846Q11.692072343749999,18.55045700307846,11.561152343749999,18.75406700307846C11.54236234375,18.78328700307846,11.54385234375,18.82080700307846,11.56609234375,18.84749700307846" fill-rule="evenodd" fill="#000000" fill-opacity="0.6499999761581421"/></g><g transform="matrix(1,0,0,-1,0,35.799983978271484)"><path d="M9.67980234375,18.899991989135742L7.51990234375,18.899991989135742C7.45362814375,18.899991989135742,7.39990234375,18.84626598913574,7.39990234375,18.77999198913574L7.39990234375,18.019991989135743C7.39990234375,17.95371778913574,7.45362814375,17.899991989135742,7.51990234375,17.899991989135742L9.67980234375,17.899991989135742C9.74608234375,17.899991989135742,9.79980234375,17.95371778913574,9.79980234375,18.019991989135743L9.79980234375,18.77999198913574C9.79980234375,18.84626598913574,9.74608234375,18.899991989135742,9.67980234375,18.899991989135742" fill-rule="evenodd" fill="#3182DD" fill-opacity="1"/></g></g></g></svg>