<svg xmlns="http://www.w3.org/2000/svg" xmlns:xlink="http://www.w3.org/1999/xlink" fill="none" version="1.1" width="16" height="16" viewBox="0 0 16 16"><g><g transform="matrix(1,0,0,-1,0,28.787860870361328)"><path d="M11.349070517578125,16.236820435180665C10.346450517578125,15.484020435180664,9.100330517578126,15.037973435180664,7.750030517578125,15.037973435180664C4.436320517578125,15.037973435180664,1.750030517578125,17.724260435180664,1.750030517578125,21.037970435180664C1.750030517578125,24.351680435180665,4.436320517578125,27.037930435180662,7.750030517578125,27.037930435180662C11.063740517578125,27.037930435180662,13.750030517578125,24.351680435180665,13.750030517578125,21.037970435180664C13.750030517578125,19.687660435180664,13.303930517578126,18.441530435180663,12.551130517578125,17.438890435180664L14.247530517578125,15.742570435180664C14.442730517578125,15.547310435180664,14.442730517578125,15.230725435180664,14.247530517578125,15.035463435180665L13.752530517578125,14.540489435180664C13.557230517578125,14.345227235180664,13.240630517578126,14.345227235180664,13.045430517578126,14.540489435180664L11.349070517578125,16.236820435180665ZM12.550030517578126,21.037970435180664C12.550030517578126,23.688940435180662,10.401000517578124,25.837930435180667,7.750030517578125,25.837930435180667C5.099060517578125,25.837930435180667,2.950030517578125,23.688940435180662,2.950030517578125,21.037970435180664C2.950030517578125,18.387010435180663,5.099060517578125,16.237970435180664,7.750030517578125,16.237970435180664C10.401000517578124,16.237970435180664,12.550030517578126,18.387010435180663,12.550030517578126,21.037970435180664ZM8.501380517578125,19.503800435180665Q8.193510517578126,18.927220435180665,7.634060517578125,18.573980435180665Q7.022550517578125,18.187880435180663,6.299350517578125,18.187880435180663L4.920140517578125,18.187880435180663C4.853870517578125,18.187880435180663,4.800140517578125,18.241600435180665,4.800140517578125,18.307880435180664L4.800140517578125,19.067880435180662C4.800140517578125,19.134150435180665,4.853870517578125,19.187880435180663,4.920140517578125,19.187880435180663L6.299350517578125,19.187880435180663Q6.733270517578125,19.187880435180663,7.100180517578125,19.419540435180664Q7.467080517578125,19.651200435180662,7.653640517578125,20.042970435180663L7.913840517578125,20.589390435180665L8.190740517578124,20.007900435180666Q8.321250517578125,19.733820435180665,8.501380517578125,19.503800435180665ZM11.298010517578126,19.469430435180662L10.299580517578125,20.350070435180665C10.260830517578125,20.384240435180665,10.199890517578124,20.356730435180665,10.199890517578124,20.305070435180664L10.199890517578124,19.950510435180664Q10.056110517578125,19.998520435180666,9.922790517578125,20.082700435180662Q9.612510517578125,20.278610435180664,9.454740517578125,20.609920435180662L8.556350517578124,22.496540435180663Q8.245420517578125,23.149490435180663,7.633910517578125,23.535590435180666Q7.022400517578125,23.921700435180664,6.299200517578125,23.921700435180664L4.919990517578125,23.921700435180664C4.853710517578126,23.921700435180664,4.7999905175781254,23.867970435180666,4.7999905175781254,23.801700435180663L4.7999905175781254,23.041700435180665C4.7999905175781254,22.975430435180662,4.853710517578126,22.921700435180664,4.919990517578125,22.921700435180664L6.299200517578125,22.921700435180664Q6.733120517578125,22.921700435180664,7.100020517578125,22.690040435180663Q7.466930517578125,22.45837043518066,7.653490517578125,22.066600435180664L8.551880517578125,20.179990435180663Q8.834020517578125,19.587490435180662,9.388910517578125,19.237140435180663Q9.770440517578125,18.996240435180663,10.199890517578124,18.920980435180663L10.199890517578124,18.451190435180663C10.199890517578124,18.399490435180663,10.260920517578125,18.371990435180663,10.299640517578124,18.406250435180663L11.298140517578124,19.289550435180665C11.352180517578125,19.337360435180663,11.352120517578125,19.421700435180664,11.298010517578126,19.469430435180662ZM7.081730517578125,20.567760435180663L4.919990517578125,20.567760435180663C4.853710517578126,20.567760435180663,4.7999905175781254,20.621480435180665,4.7999905175781254,20.687760435180664L4.7999905175781254,21.447760435180662C4.7999905175781254,21.514030435180665,4.853710517578126,21.567760435180663,4.919990517578125,21.567760435180663L7.081730517578125,21.567760435180663C7.148010517578125,21.567760435180663,7.201730517578125,21.514030435180665,7.201730517578125,21.447760435180662L7.201730517578125,20.687760435180664C7.201730517578125,20.621480435180665,7.148010517578125,20.567760435180663,7.081730517578125,20.567760435180663ZM8.977630517578124,22.542130435180663L9.464570517578125,21.519550435180662Q9.622040517578125,21.836890435180663,9.922940517578125,22.026880435180665Q10.056260517578124,22.111050435180665,10.200040517578126,22.159060435180663L10.200040517578126,21.701110435180663C10.200040517578126,21.649400435180663,10.261090517578126,21.621910435180663,10.299810517578125,21.656180435180666L11.298320517578125,22.539970435180663C11.352340517578124,22.587790435180665,11.352260517578125,22.672130435180662,11.298140517578124,22.719840435180664L10.299720517578125,23.600000435180664C10.260970517578125,23.634160435180664,10.200040517578126,23.60665043518066,10.200040517578126,23.555000435180666L10.200040517578126,23.188590435180664Q9.770600517578124,23.113330435180664,9.389060517578125,22.872440435180664Q9.160130517578125,22.72789043518066,8.977630517578124,22.542130435180663Z" fill-rule="evenodd" fill="#000000" fill-opacity="0.6499999761581421"/></g></g></svg>