<svg xmlns="http://www.w3.org/2000/svg" xmlns:xlink="http://www.w3.org/1999/xlink" fill="none" version="1.1" width="16" height="16" viewBox="0 0 16 16"><g><g><path d="M6.85197,7.52342Q6.6468,7.67506,6.42019,7.79228Q6.19358,7.90949,5.95126,7.98932Q5.70894,8.06915,5.45704,8.109580000000001Q5.2051300000000005,8.15,4.95,8.15Q4.7861899999999995,8.15,4.62324,8.13327L4.88266,13.1499L9.20337,13.1499L6.85197,7.52342ZM6.88853,5.75752Q6.82907,5.90027,6.74934,6.03277Q6.6696,6.16527,6.57132,6.28466Q6.47304,6.40405,6.35833,6.50776Q6.24361,6.61147,6.11495,6.69725Q5.98628,6.78304,5.84644,6.84905Q5.7066,6.91506,5.558590000000001,6.95988Q5.41059,7.0047,5.25761,7.02735Q5.10464,7.05,4.95,7.05Q4.846830000000001,7.05,4.74416,7.03989Q4.64149,7.02978,4.54031,7.00965Q4.4391300000000005,6.98952,4.3404,6.95958Q4.241680000000001,6.92963,4.14636,6.89015Q4.05105,6.85067,3.96007,6.80204Q3.86908,6.7534,3.7833,6.69609Q3.69752,6.63877,3.61777,6.57332Q3.53803,6.50788,3.46508,6.43493Q3.39213,6.36198,3.32668,6.28223Q3.2612300000000003,6.20248,3.20391,6.1167Q3.1466000000000003,6.03092,3.09797,5.93993Q3.0493300000000003,5.84895,3.00985,5.75364Q2.97037,5.65832,2.94043,5.5596Q2.9104799999999997,5.46087,2.8903499999999998,5.3596900000000005Q2.8702199999999998,5.258509999999999,2.8601099999999997,5.1558399999999995Q2.85,5.05317,2.85,4.95Q2.85,4.846830000000001,2.8601099999999997,4.74416Q2.8702199999999998,4.641500000000001,2.8903499999999998,4.54031Q2.9104799999999997,4.4391300000000005,2.94043,4.3404Q2.97037,4.241680000000001,3.00985,4.14636Q3.0493300000000003,4.05105,3.09797,3.96007Q3.1466000000000003,3.86908,3.20391,3.7833Q3.2612300000000003,3.69752,3.32668,3.61777Q3.39213,3.53803,3.46508,3.46508Q3.53803,3.39213,3.61777,3.32668Q3.69752,3.2612300000000003,3.7833,3.20391Q3.86908,3.1466000000000003,3.96007,3.09797Q4.05105,3.0493300000000003,4.14636,3.00985Q4.241680000000001,2.97037,4.3404,2.94043Q4.4391300000000005,2.9104799999999997,4.54031,2.8903499999999998Q4.64149,2.8702199999999998,4.74416,2.8601099999999997Q4.846830000000001,2.85,4.95,2.85Q5.05317,2.85,5.1558399999999995,2.8601099999999997Q5.258509999999999,2.8702199999999998,5.3596900000000005,2.8903499999999998Q5.46087,2.9104799999999997,5.5596,2.94043Q5.65832,2.97037,5.75363,3.00985Q5.84895,3.0493300000000003,5.93993,3.09797Q6.03092,3.1466000000000003,6.1167,3.20391Q6.20248,3.2612300000000003,6.28223,3.32668Q6.36197,3.39213,6.43492,3.46508Q6.50787,3.53803,6.57332,3.61777Q6.63877,3.69752,6.69609,3.7833Q6.7534,3.86908,6.80203,3.96007Q6.85067,4.05105,6.89015,4.14637Q6.92963,4.241680000000001,6.95958,4.3404Q6.98952,4.4391300000000005,7.00965,4.54031Q7.02978,4.64149,7.03989,4.74416Q7.05,4.846830000000001,7.05,4.95Q7.05,5.35019,6.90282,5.72232L6.88432,5.7247L6.88853,5.75752ZM8.08941,5.56975L10.45004,5.266220000000001L10.45004,4.2355599999999995L7.9821,3.92709Q8.15,4.4247700000000005,8.15,4.95Q8.15,5.262840000000001,8.08941,5.56975ZM7.25207,2.727278Q7.02823,2.495449,6.76266,2.3129049999999998Q6.49709,2.130362,6.20046,2.004435Q5.90383,1.878508,5.5880399999999995,1.8142538Q5.27226,1.7499999999999998,4.95,1.75Q4.79279,1.75,4.63635,1.7654089Q4.479900000000001,1.7808178,4.32571,1.8114871Q4.171530000000001,1.8421565,4.02109,1.887791Q3.87065,1.933425,3.72541,1.993586Q3.58017,2.053746,3.44153,2.127852Q3.30289,2.201958,3.17218,2.289297Q3.04146,2.376636,2.91994,2.4763669999999998Q2.79842,2.576097,2.687258,2.687258Q2.576097,2.79842,2.4763669999999998,2.91994Q2.376636,3.04146,2.289297,3.17218Q2.201958,3.30289,2.127852,3.44153Q2.053746,3.58017,1.993585,3.72541Q1.933425,3.87065,1.887791,4.02109Q1.8421564,4.171530000000001,1.8114871,4.32571Q1.7808177,4.479900000000001,1.7654089,4.63635Q1.75,4.79279,1.75,4.95Q1.75,5.16348,1.7783566,5.3750599999999995Q1.8067133,5.586650000000001,1.862924,5.79259Q1.919135,5.99854,2.002203,6.19519Q2.085272,6.39184,2.193726,6.57572Q2.30218,6.75959,2.434098,6.92743Q2.566016,7.09527,2.719059,7.2441Q2.8721,7.39293,3.0435600000000003,7.52011Q3.21502,7.6473,3.40185,7.75058L3.68105,13.1499L1.87,13.1499C1.8037258,13.1499,1.75,13.2036,1.75,13.2699L1.75,14.1299C1.75,14.1962,1.8037258,14.2499,1.87,14.2499L14.13,14.2499C14.1963,14.2499,14.25,14.1962,14.25,14.1299L14.25,13.2699C14.25,13.2036,14.1963,13.1499,14.13,13.1499L10.50395,13.1499L7.81435,6.71418L11.18752,6.28045L12.3415,6.79331C12.49,6.85933,12.6614,6.84901,12.801,6.76564L14.1915,5.93489C14.2278,5.91323,14.25,5.8741,14.25,5.83187L14.25,5.19027C14.25,5.1020199999999996,14.1579,5.04396,14.0783,5.081989999999999L12.5717,5.80133L11.55004,5.34726L11.55004,4.1526700000000005L12.5717,3.6985900000000003L14.0783,4.418C14.1579,4.45604,14.25,4.39797,14.25,4.30972L14.25,3.66807C14.25,3.62584,14.2278,3.58671,14.1915,3.5650500000000003L12.801,2.73429C12.6614,2.650914,12.49,2.640592,12.3415,2.706616L11.18802,3.2192499999999997L7.46821,2.7542999999999997L7.25207,2.727278ZM4.34998,5.1501C4.34998,5.37101,4.529059999999999,5.5501000000000005,4.74998,5.5501000000000005L5.149979999999999,5.5501000000000005C5.37089,5.5501000000000005,5.54998,5.37101,5.54998,5.1501L5.54998,4.7501C5.54998,4.52918,5.37089,4.350099999999999,5.149979999999999,4.350099999999999L4.74998,4.350099999999999C4.529059999999999,4.350099999999999,4.34998,4.52918,4.34998,4.7501L4.34998,5.1501Z" fill-rule="evenodd" fill="#000000" fill-opacity="0.6499999761581421"/></g></g></svg>